<?xml version="1.0" standalone="no"?>
<!DOCTYPE svg PUBLIC "-//W3C//DTD SVG 20010904//EN"
 "http://www.w3.org/TR/2001/REC-SVG-20010904/DTD/svg10.dtd">
<svg version="1.0" xmlns="http://www.w3.org/2000/svg"
 width="900.000000pt" height="200.000000pt" viewBox="0 0 900.000000 200.000000"
 preserveAspectRatio="xMidYMid meet">

<g transform="translate(0.000000,200.000000) scale(0.100000,-0.100000)"
fill="#000000" stroke="none">
<path d="M6492 1948 c-18 -18 -14 -49 9 -74 16 -17 19 -29 13 -58 -6 -34 -8
-36 -23 -21 -28 25 -40 18 -43 -27 l-3 -43 -19 57 c-18 52 -18 57 -3 73 22 22
21 48 -1 68 -23 21 -56 22 -71 3 -20 -23 -9 -70 17 -81 21 -9 23 -15 18 -54
-3 -24 -6 -57 -6 -72 0 -43 -23 -36 -58 18 -24 36 -28 50 -20 63 30 48 -31
102 -72 65 -36 -32 -22 -78 25 -86 15 -3 25 -23 43 -82 l23 -78 -30 -62 c-52
-108 -53 -110 -25 -151 32 -47 64 -48 107 -2 18 18 46 37 62 41 17 3 38 14 48
22 15 15 17 15 17 0 0 -9 -20 -39 -45 -67 -55 -61 -75 -99 -75 -140 l0 -30
191 0 190 0 -5 55 c-3 30 -9 80 -12 111 -3 31 -12 74 -19 94 -13 36 -11 47 24
162 29 98 41 124 56 127 47 8 61 54 25 86 -41 37 -102 -17 -72 -65 8 -14 1
-32 -39 -91 l-49 -74 0 100 c0 94 1 101 23 110 25 11 35 58 16 81 -16 20 -53
18 -72 -4 -21 -24 -21 -46 0 -67 15 -15 14 -22 -7 -91 -13 -42 -26 -77 -30
-79 -18 -11 -39 28 -49 94 -11 69 -10 75 9 96 37 39 20 85 -30 85 -14 0 -31
-5 -38 -12z m63 -33 c0 -22 -31 -33 -47 -17 -17 17 -1 44 24 40 15 -2 23 -10
23 -23z m-150 -26 c0 -17 -6 -24 -20 -24 -23 0 -33 34 -13 46 20 13 33 5 33
-22z m283 22 c19 -11 11 -45 -11 -49 -19 -4 -32 20 -23 43 6 17 15 19 34 6z
m-403 -86 c0 -25 -40 -33 -49 -10 -9 24 2 37 27 33 14 -2 22 -10 22 -23z m539
16 c10 -16 -5 -41 -24 -41 -23 0 -34 16 -26 35 6 16 42 20 50 6z m-334 -112
c0 -20 8 -30 39 -44 108 -48 181 -199 181 -372 l0 -43 -145 0 c-173 0 -173 0
-90 104 30 38 55 77 55 87 0 46 -26 63 -50 34 -7 -8 -27 -17 -45 -21 -18 -3
-47 -21 -66 -40 -18 -19 -41 -34 -51 -34 -23 0 -41 36 -33 67 10 43 77 177 96
196 12 11 19 32 19 53 0 21 4 33 10 29 6 -3 10 -15 10 -26 0 -12 7 -19 19 -19
21 0 31 18 31 58 0 21 2 24 10 12 5 -8 10 -27 10 -41z m50 4 c0 -22 -2 -25
-10 -13 -13 20 -13 40 0 40 6 0 10 -12 10 -27z m105 -81 c-3 -3 -10 -1 -16 5
-7 7 -7 23 3 54 l13 44 3 -49 c2 -26 1 -51 -3 -54z m-305 15 c0 -16 -18 3 -23
25 -6 22 -5 22 8 4 8 -11 15 -24 15 -29z m388 -19 c-24 -74 -34 -87 -42 -60
-4 13 4 37 25 71 18 28 33 51 35 51 1 0 -7 -28 -18 -62z"/>
<path d="M6589 1601 c42 -59 53 -107 54 -223 0 -96 0 -98 23 -98 21 0 24 5 24
38 -1 63 -27 186 -48 228 -11 21 -35 53 -52 69 l-33 30 32 -44z"/>
<path d="M6375 1619 c-11 -16 1 -22 30 -15 14 4 23 11 20 16 -8 13 -42 13 -50
-1z"/>
<path d="M6312 1478 c-13 -13 -16 -38 -4 -38 4 0 15 12 25 25 13 19 15 25 4
25 -7 0 -18 -5 -25 -12z"/>
<path d="M1472 1794 c-28 -19 -29 -58 -2 -77 21 -14 21 -16 5 -111 -8 -53 -15
-99 -16 -103 0 -5 -15 33 -34 82 -29 78 -31 92 -19 106 17 19 18 61 2 77 -28
28 -88 2 -88 -38 0 -19 21 -45 41 -52 10 -3 33 -187 25 -195 -1 -1 -21 28 -44
66 -39 63 -41 70 -30 99 11 29 10 34 -10 54 -18 18 -26 20 -49 12 -47 -16 -41
-94 7 -94 14 0 26 -24 54 -108 30 -90 36 -121 36 -194 0 -110 3 -113 150 -113
147 0 150 2 151 118 0 75 6 111 32 192 27 82 36 101 54 103 52 8 59 79 10 96
-23 8 -31 6 -49 -12 -20 -19 -21 -26 -11 -53 11 -28 9 -36 -33 -102 l-45 -72
7 95 c6 89 8 96 35 118 33 27 37 52 11 75 -27 25 -59 21 -78 -9 -16 -24 -16
-27 2 -52 l20 -27 -32 -90 c-35 -100 -35 -100 -55 38 -10 75 -10 80 10 94 28
19 27 58 -1 77 -12 9 -25 16 -28 16 -3 0 -16 -7 -28 -16z m51 -26 c7 -21 -4
-38 -23 -38 -23 0 -34 16 -26 35 7 18 43 20 49 3z m-139 -14 c21 -8 21 -43 0
-51 -23 -9 -48 25 -33 44 13 15 12 15 33 7z m261 -24 c0 -29 -32 -41 -41 -16
-9 24 4 48 23 44 12 -2 18 -12 18 -28z m-357 -64 c-2 -13 -10 -21 -23 -21 -23
0 -33 34 -14 45 20 13 40 -1 37 -24z m469 -10 c-8 -21 -43 -20 -51 1 -10 26
23 48 42 29 8 -8 12 -22 9 -30z m-242 -148 c7 -77 7 -78 -16 -78 l-24 0 9 91
c11 103 21 99 31 -13z m-65 -80 c0 -5 -6 -8 -14 -8 -15 0 -22 22 -31 110 l-5
55 25 -75 c13 -41 25 -78 25 -82z m146 120 c-3 -18 -8 -54 -11 -80 -4 -32 -11
-48 -21 -48 -18 0 -18 2 7 88 23 77 33 93 25 40z m-215 -131 c-7 -7 -12 -6
-16 4 -18 50 -35 102 -35 108 0 3 14 -18 31 -48 21 -37 28 -56 20 -64z m263
40 c-14 -43 -34 -63 -34 -36 0 13 42 90 47 86 2 -2 -4 -25 -13 -50z m-80 -55
c80 -14 47 -27 -69 -27 -72 0 -114 4 -112 10 7 20 111 29 181 17z m31 -52 c42
-16 20 -28 -32 -18 -44 8 -137 3 -170 -9 -7 -3 -13 1 -13 10 0 9 10 18 23 20
44 9 166 7 192 -3z m10 -46 c36 -14 8 -19 -105 -19 -111 0 -151 8 -97 19 12 3
31 7 42 10 23 6 138 -2 160 -10z m-9 -44 c21 -8 25 -13 15 -23 -17 -17 -206
-16 -222 0 -10 10 -7 14 12 22 32 13 161 13 195 1z"/>
<path d="M3450 1769 l0 -42 -21 27 c-31 39 -49 34 -49 -15 0 -32 -6 -46 -24
-60 -14 -11 -30 -36 -36 -57 -7 -20 -18 -47 -26 -59 -8 -12 -23 -44 -33 -71
l-20 -49 25 -37 c32 -47 64 -48 107 -2 18 18 46 37 62 41 17 3 38 14 48 22 15
15 17 15 17 0 0 -9 -20 -39 -45 -67 -55 -61 -75 -99 -75 -140 l0 -30 190 0
191 0 -6 68 c-17 194 -52 292 -132 362 -25 22 -56 43 -69 46 -13 4 -25 16 -29
32 -8 31 -43 72 -62 72 -9 0 -13 -14 -13 -41z m40 -40 c0 -20 8 -30 39 -44
108 -48 181 -199 181 -372 l0 -43 -145 0 c-173 0 -173 0 -90 104 30 38 55 77
55 87 0 46 -26 63 -50 34 -7 -8 -27 -17 -45 -21 -18 -3 -47 -21 -66 -40 -18
-19 -41 -34 -51 -34 -23 0 -41 36 -33 67 10 43 77 177 96 196 12 11 19 32 19
53 0 21 4 33 10 29 6 -3 10 -15 10 -26 0 -12 7 -19 19 -19 21 0 31 18 31 58 0
21 2 24 10 12 5 -8 10 -27 10 -41z"/>
<path d="M3589 1601 c42 -59 53 -107 54 -223 0 -96 0 -98 23 -98 21 0 24 5 24
38 -1 63 -27 186 -48 228 -11 21 -35 53 -52 69 l-33 30 32 -44z"/>
<path d="M3375 1619 c-11 -16 1 -22 30 -15 14 4 23 11 20 16 -8 13 -42 13 -50
-1z"/>
<path d="M3312 1478 c-13 -13 -16 -38 -4 -38 4 0 15 12 25 25 13 19 15 25 4
25 -7 0 -18 -5 -25 -12z"/>
<path d="M7450 1769 l0 -42 -21 27 c-31 39 -49 34 -49 -15 0 -32 -6 -46 -24
-60 -14 -11 -30 -36 -36 -57 -7 -20 -18 -47 -26 -59 -8 -12 -23 -44 -33 -71
l-20 -49 25 -37 c32 -47 64 -48 107 -2 18 18 46 37 62 41 17 3 38 14 48 22 15
15 17 15 17 0 0 -9 -20 -39 -45 -67 -55 -61 -75 -99 -75 -140 l0 -30 76 0 c66
0 75 -2 72 -17 -3 -15 -18 -19 -103 -23 -55 -3 -106 -9 -112 -13 -15 -9 -17
-73 -4 -82 6 -3 14 2 20 12 8 14 29 18 123 23 62 3 164 3 226 0 93 -4 116 -8
126 -22 7 -10 16 -15 19 -11 12 11 7 72 -5 80 -7 4 -58 10 -113 13 -85 4 -100
8 -103 23 -3 15 6 17 78 17 l81 0 -6 68 c-17 194 -52 292 -132 362 -25 22 -56
43 -69 46 -13 4 -25 16 -29 32 -8 31 -43 72 -62 72 -9 0 -13 -14 -13 -41z m40
-40 c0 -20 8 -30 39 -44 108 -48 181 -199 181 -372 l0 -43 -145 0 c-173 0
-173 0 -90 104 30 38 55 77 55 87 0 46 -26 63 -50 34 -7 -8 -27 -17 -45 -21
-18 -3 -47 -21 -66 -40 -18 -19 -41 -34 -51 -34 -23 0 -41 36 -33 67 10 43 77
177 96 196 12 11 19 32 19 53 0 21 4 33 10 29 6 -3 10 -15 10 -26 0 -12 7 -19
19 -19 21 0 31 18 31 58 0 21 2 24 10 12 5 -8 10 -27 10 -41z m66 -554 c-6
-25 -8 -25 -102 -25 -52 0 -104 -5 -115 -10 -21 -12 -26 -1 -7 18 8 8 45 12
100 12 75 0 91 3 105 20 21 24 27 19 19 -15z m34 21 c0 -21 23 -26 114 -26 50
0 87 -5 94 -12 19 -19 14 -30 -7 -18 -11 5 -62 10 -114 10 -77 0 -96 3 -101
16 -9 24 -7 44 4 44 6 0 10 -6 10 -14z"/>
<path d="M7589 1601 c42 -59 53 -107 54 -223 0 -96 0 -98 23 -98 21 0 24 5 24
38 -1 63 -27 186 -48 228 -11 21 -35 53 -52 69 l-33 30 32 -44z"/>
<path d="M7375 1619 c-11 -16 1 -22 30 -15 14 4 23 11 20 16 -8 13 -42 13 -50
-1z"/>
<path d="M7312 1478 c-13 -13 -16 -38 -4 -38 4 0 15 12 25 25 13 19 15 25 4
25 -7 0 -18 -5 -25 -12z"/>
<path d="M8450 1769 l0 -42 -21 27 c-31 39 -49 34 -49 -15 0 -32 -6 -46 -24
-60 -14 -11 -30 -36 -36 -57 -7 -20 -18 -47 -26 -59 -8 -12 -23 -44 -33 -71
l-20 -49 25 -37 c32 -47 64 -48 107 -2 18 18 46 37 62 41 17 3 38 14 48 22 15
15 17 15 17 0 0 -9 -20 -39 -45 -67 -24 -28 -51 -63 -60 -80 -20 -38 -20 -90
0 -90 22 0 18 -21 -5 -27 -16 -4 -20 -14 -20 -49 l0 -44 45 0 c25 0 45 5 45
10 0 6 9 10 20 10 11 0 20 -4 20 -10 0 -6 28 -10 65 -10 37 0 65 4 65 10 0 6
9 10 20 10 11 0 20 -4 20 -10 0 -5 23 -10 50 -10 l50 0 0 40 c0 34 -4 42 -25
50 -30 11 -33 30 -5 30 19 0 20 4 15 68 -17 194 -52 292 -132 362 -25 22 -56
43 -69 46 -13 4 -25 16 -29 32 -8 31 -43 72 -62 72 -9 0 -13 -14 -13 -41z m40
-40 c0 -20 8 -30 39 -44 108 -48 181 -199 181 -372 l0 -43 -145 0 c-173 0
-173 0 -90 104 30 38 55 77 55 87 0 46 -26 63 -50 34 -7 -8 -27 -17 -45 -21
-18 -3 -47 -21 -66 -40 -18 -19 -41 -34 -51 -34 -23 0 -41 36 -33 67 10 43 77
177 96 196 12 11 19 32 19 53 0 21 4 33 10 29 6 -3 10 -15 10 -26 0 -12 7 -19
19 -19 21 0 31 18 31 58 0 21 2 24 10 12 5 -8 10 -27 10 -41z m200 -514 c11
-13 -4 -15 -125 -15 -121 0 -136 2 -125 15 10 12 37 15 125 15 88 0 115 -3
125 -15z m40 -60 c0 -18 -5 -25 -20 -25 -11 0 -20 5 -20 10 0 6 -18 10 -39 10
-22 0 -43 -4 -46 -10 -3 -5 -21 -10 -40 -10 -19 0 -37 5 -40 10 -3 6 -24 10
-46 10 -21 0 -39 -4 -39 -10 0 -5 -9 -10 -20 -10 -15 0 -20 7 -20 25 l0 25
165 0 165 0 0 -25z"/>
<path d="M8589 1601 c42 -59 53 -107 54 -223 0 -96 0 -98 23 -98 21 0 24 5 24
38 -1 63 -27 186 -48 228 -11 21 -35 53 -52 69 l-33 30 32 -44z"/>
<path d="M8375 1619 c-11 -16 1 -22 30 -15 14 4 23 11 20 16 -8 13 -42 13 -50
-1z"/>
<path d="M8312 1478 c-13 -13 -16 -38 -4 -38 4 0 15 12 25 25 13 19 15 25 4
25 -7 0 -18 -5 -25 -12z"/>
<path d="M490 1785 c0 -8 -7 -15 -15 -15 -8 0 -15 -4 -15 -10 0 -5 7 -10 15
-10 22 0 18 -38 -5 -50 -13 -7 -20 -21 -20 -41 l0 -30 -32 17 c-33 17 -89 14
-114 -7 -8 -6 -18 -28 -24 -49 -13 -47 3 -101 47 -157 29 -37 30 -41 25 -119
-4 -78 -3 -83 19 -95 33 -19 225 -19 258 0 23 13 23 16 17 93 -6 75 -5 82 17
112 55 72 74 158 44 197 -30 39 -83 49 -129 25 -27 -15 -28 -14 -28 14 0 19
-7 33 -20 40 -23 12 -27 50 -5 50 8 0 15 5 15 10 0 6 -7 10 -15 10 -8 0 -15 7
-15 15 0 8 -4 15 -10 15 -5 0 -10 -7 -10 -15z m28 -148 c2 -25 -2 -56 -9 -69
-12 -22 -12 -22 -20 -3 -10 25 -11 109 -2 119 16 15 28 -3 31 -47z m-103 -29
c36 -28 65 -92 65 -144 l0 -42 -47 -5 c-42 -4 -51 -1 -71 22 -53 58 -67 136
-32 171 26 26 51 25 85 -2z m255 2 c25 -25 26 -70 0 -118 -38 -72 -49 -80
-105 -73 l-50 6 3 45 c8 115 96 196 152 140z m-91 -216 c23 -5 31 -12 31 -29
0 -21 -3 -21 -47 -14 -27 4 -76 5 -110 2 -59 -5 -63 -4 -63 15 0 13 8 22 23
25 36 7 132 7 166 1z m15 -70 c9 -3 16 -14 16 -23 0 -14 -15 -16 -115 -16 -63
0 -115 3 -115 7 0 4 7 14 16 22 11 12 36 16 99 16 46 0 90 -3 99 -6z m2 -64
c21 -8 25 -13 15 -23 -17 -17 -206 -16 -222 0 -10 10 -7 14 12 22 32 13 161
13 195 1z"/>
<path d="M5453 1788 c-31 -15 -38 -44 -19 -73 9 -14 12 -25 7 -25 -5 0 -23
-12 -40 -26 -42 -35 -50 -82 -21 -131 15 -26 18 -39 10 -41 -28 -10 -79 -65
-99 -107 -11 -24 -24 -69 -27 -100 l-7 -55 243 0 243 0 -7 53 c-11 83 -48 151
-100 189 -35 24 -43 34 -32 40 8 5 20 23 26 42 14 44 -6 97 -47 122 -15 10
-29 19 -31 20 -2 1 4 13 12 27 15 22 15 26 -1 46 -21 25 -78 35 -110 19z m68
-18 c23 -13 25 -45 4 -54 -25 -9 -17 -33 16 -47 20 -8 37 -25 45 -45 19 -45
18 -48 -16 -87 -16 -19 -30 -39 -30 -43 0 -5 18 -19 40 -32 44 -25 82 -71 99
-121 25 -74 33 -71 -179 -71 l-190 0 0 25 c0 62 62 151 121 176 37 15 36 28
-1 61 -47 41 -35 101 27 139 32 20 43 39 23 39 -5 0 -14 9 -20 19 -7 15 -6 23
6 35 18 19 28 20 55 6z"/>
<path d="M2475 1777 c-13 -10 -16 -22 -12 -42 4 -25 -2 -35 -43 -72 -26 -23
-53 -56 -60 -73 -18 -43 -8 -116 20 -146 22 -22 22 -26 10 -64 -16 -48 -3 -70
41 -70 16 0 29 -4 29 -10 0 -6 -33 -10 -79 -10 -43 0 -92 -5 -110 -11 -28 -10
-31 -15 -31 -50 0 -43 4 -46 26 -24 12 11 40 15 114 15 55 0 102 4 105 10 4 7
12 7 25 0 10 -5 61 -10 114 -10 71 0 98 -4 110 -15 22 -22 26 -19 26 24 0 35
-3 40 -31 50 -18 6 -67 11 -110 11 -46 0 -79 4 -79 10 0 6 10 10 23 10 13 0
32 6 42 14 18 13 18 16 3 54 -14 36 -14 43 -1 53 23 20 43 65 43 99 0 47 -27
95 -75 138 -37 32 -42 42 -38 66 4 21 1 33 -12 43 -11 7 -22 13 -25 13 -3 0
-14 -6 -25 -13z m45 -32 c0 -19 -20 -29 -32 -17 -15 15 -2 43 17 36 8 -3 15
-12 15 -19z m38 -94 c44 -43 67 -103 56 -146 -10 -42 -59 -75 -110 -75 -106 0
-152 75 -104 169 21 43 75 91 101 91 9 0 35 -18 57 -39z m14 -256 c14 -18 8
-20 -72 -20 -72 0 -94 8 -76 26 9 9 141 4 148 -6z m8 -45 c25 -16 -38 -32
-103 -27 -64 6 -79 13 -57 27 19 12 141 12 160 0z m-95 -98 c-10 -10 -225 -18
-225 -9 0 16 54 27 130 27 64 0 79 3 86 18 6 15 8 14 12 -6 2 -13 1 -27 -3
-30z m125 18 c76 0 130 -11 130 -27 0 -8 -169 -6 -207 2 -17 4 -23 12 -23 33
1 23 2 24 11 10 8 -15 24 -18 89 -18z"/>
<path d="M2490 1640 c0 -27 -3 -30 -30 -30 -20 0 -30 -5 -30 -15 0 -10 10 -15
30 -15 l30 0 0 -65 c0 -37 4 -65 10 -65 6 0 10 28 10 65 l0 65 30 0 c20 0 30
5 30 15 0 10 -10 15 -30 15 -27 0 -30 3 -30 30 0 17 -4 30 -10 30 -5 0 -10
-13 -10 -30z"/>
<path d="M4300 1725 c0 -32 4 -45 14 -45 33 0 46 -46 46 -164 0 -122 -11 -166
-42 -166 -12 0 -18 -7 -18 -24 0 -18 -6 -25 -22 -28 -18 -2 -24 -11 -26 -35
l-3 -33 245 0 246 0 0 35 c0 28 -4 35 -20 35 -15 0 -20 7 -20 25 0 18 -5 25
-18 25 -31 0 -42 44 -42 165 0 121 11 165 42 165 15 0 18 8 18 45 l0 45 -45 0
c-25 0 -45 -4 -45 -10 0 -5 -11 -10 -25 -10 -14 0 -25 5 -25 10 0 6 -27 10
-60 10 -33 0 -60 -4 -60 -10 0 -5 -11 -10 -25 -10 -14 0 -25 5 -25 10 0 6 -20
10 -45 10 l-45 0 0 -45z m74 10 c6 -17 86 -22 86 -5 0 6 18 10 40 10 22 0 40
-4 40 -10 0 -17 72 -12 85 7 16 21 45 10 45 -17 0 -19 -6 -20 -170 -20 -158 0
-170 1 -170 18 0 33 33 46 44 17z m254 -67 c-4 -10 -38 -13 -128 -13 -90 0
-124 3 -127 13 -4 9 26 12 127 12 101 0 131 -3 128 -12z m-18 -158 l0 -110
-110 0 -110 0 0 110 0 110 110 0 110 0 0 -110z m14 -145 c5 -13 -13 -15 -124
-15 -119 0 -142 4 -123 23 3 4 59 7 124 7 95 0 118 -3 123 -15z m44 -52 c3
-10 -35 -13 -167 -13 -157 0 -184 4 -164 24 4 3 79 5 167 4 117 -2 160 -6 164
-15z m42 -53 c0 -6 -77 -10 -210 -10 -133 0 -210 4 -210 10 0 6 77 10 210 10
133 0 210 -4 210 -10z"/>
<path d="M6492 948 c-18 -18 -14 -49 9 -74 16 -17 19 -29 13 -58 -6 -34 -8
-36 -23 -21 -28 25 -40 18 -43 -27 l-3 -43 -19 57 c-18 52 -18 57 -3 73 22 22
21 48 -1 68 -23 21 -56 22 -71 3 -20 -23 -9 -70 17 -81 21 -9 23 -15 18 -54
-3 -24 -6 -57 -6 -72 0 -43 -23 -36 -58 18 -24 36 -28 50 -20 63 30 48 -31
102 -72 65 -36 -32 -22 -78 25 -86 15 -3 25 -23 43 -82 l23 -78 -30 -62 c-52
-108 -53 -110 -25 -151 32 -47 64 -48 107 -2 18 18 46 37 62 41 17 3 38 14 48
22 15 15 17 15 17 0 0 -9 -20 -39 -45 -67 -55 -61 -75 -99 -75 -140 l0 -30
191 0 190 0 -5 55 c-3 30 -9 80 -12 111 -3 31 -12 74 -19 94 -13 36 -11 47 24
162 29 98 41 124 56 127 47 8 61 54 25 86 -41 37 -102 -17 -72 -65 8 -14 1
-32 -39 -91 l-49 -74 0 100 c0 94 1 101 23 110 25 11 35 58 16 81 -16 20 -53
18 -72 -4 -21 -24 -21 -46 0 -67 15 -15 14 -22 -7 -91 -13 -42 -26 -77 -30
-79 -18 -11 -39 28 -49 94 -11 69 -10 75 9 96 22 24 26 55 8 73 -15 15 -61 15
-76 0z m42 -23 c3 -9 -1 -18 -10 -22 -19 -7 -28 2 -21 22 8 19 23 19 31 0z
m-144 -30 c0 -8 -7 -15 -15 -15 -8 0 -15 7 -15 15 0 8 7 15 15 15 8 0 15 -7
15 -15z m283 0 c1 -5 -6 -11 -15 -13 -11 -2 -18 3 -18 13 0 17 30 18 33 0z
m-409 -53 c8 -13 -11 -35 -23 -28 -16 10 -14 36 3 36 8 0 17 -4 20 -8z m534
-9 c-4 -22 -22 -20 -26 1 -2 10 3 16 13 16 10 0 15 -7 13 -17z m-183 -224 c56
-68 85 -159 85 -269 0 -52 -3 -60 -19 -60 -16 0 -19 11 -23 113 -6 122 -21
173 -65 220 -15 15 -22 27 -16 27 6 0 23 -14 38 -31z m-191 12 c3 -5 -1 -12
-10 -15 -27 -10 -44 -7 -44 9 0 16 45 21 54 6z m-91 -156 c-20 -27 -33 -32
-33 -12 0 17 20 37 37 37 11 0 9 -6 -4 -25z"/>
<path d="M1472 794 c-28 -19 -29 -58 -2 -77 20 -14 20 -19 10 -108 -7 -52 -14
-101 -17 -109 -3 -8 -20 28 -38 80 -29 84 -31 97 -18 112 18 20 13 68 -8 81
-23 14 -67 1 -74 -23 -9 -28 3 -58 25 -65 24 -8 27 -19 35 -130 l6 -90 -45 76
c-42 71 -44 79 -33 108 10 28 9 34 -11 53 -18 18 -26 20 -49 12 -47 -16 -41
-94 7 -94 14 0 26 -24 54 -108 30 -90 36 -121 36 -194 0 -110 3 -113 150 -113
148 0 150 2 150 118 0 79 5 108 33 192 27 81 38 101 55 103 51 8 58 79 9 96
-23 8 -31 6 -49 -12 -20 -19 -21 -26 -11 -52 11 -28 8 -37 -29 -101 -22 -38
-43 -68 -45 -65 -3 3 -2 45 2 94 6 84 9 91 36 111 33 25 37 51 11 74 -27 25
-59 21 -78 -9 -16 -24 -16 -27 3 -52 l20 -27 -30 -90 c-16 -49 -33 -94 -37
-98 -3 -4 -12 43 -19 104 -11 108 -11 112 9 126 27 19 26 58 -2 77 -12 9 -25
16 -28 16 -3 0 -16 -7 -28 -16z m28 -34 c0 -11 -7 -20 -15 -20 -8 0 -15 9 -15
20 0 11 7 20 15 20 8 0 15 -9 15 -20z m-122 -22 c-7 -19 -38 -22 -38 -4 0 10
9 16 21 16 12 0 19 -5 17 -12z m252 -3 c0 -8 -6 -15 -14 -15 -17 0 -28 14 -19
24 12 12 33 6 33 -9z m-360 -60 c0 -8 -6 -15 -14 -15 -17 0 -28 14 -19 24 12
12 33 6 33 -9z m463 0 c1 -5 -6 -11 -15 -13 -11 -2 -18 3 -18 13 0 17 30 18
33 0z m-111 -303 c4 -4 -51 -7 -122 -7 -124 0 -160 9 -75 18 50 6 188 -2 197
-11z m-17 -42 c13 -6 -8 -8 -60 -4 -44 3 -101 1 -127 -4 -27 -5 -48 -6 -48 -1
0 4 10 10 23 12 42 8 192 6 212 -3z m12 -49 c6 -3 -46 -6 -117 -6 -71 0 -126
2 -124 4 18 18 208 20 241 2z"/>
<path d="M3450 769 l0 -42 -21 27 c-31 39 -49 34 -49 -15 0 -32 -6 -46 -24
-60 -14 -11 -30 -36 -36 -57 -7 -20 -18 -47 -26 -59 -8 -12 -23 -44 -33 -71
l-20 -49 25 -37 c32 -47 64 -48 107 -2 18 18 46 37 62 41 17 3 38 14 48 22 15
15 17 15 17 0 0 -9 -20 -39 -45 -67 -55 -61 -75 -99 -75 -140 l0 -30 190 0
191 0 -6 68 c-17 194 -52 292 -132 362 -25 22 -56 43 -69 46 -13 4 -25 16 -29
32 -8 31 -43 72 -62 72 -9 0 -13 -14 -13 -41z m165 -160 c56 -68 85 -159 85
-269 0 -52 -3 -60 -19 -60 -16 0 -19 11 -23 113 -6 122 -21 173 -65 220 -15
15 -22 27 -16 27 6 0 23 -14 38 -31z m-191 12 c3 -5 -1 -12 -10 -15 -27 -10
-44 -7 -44 9 0 16 45 21 54 6z m-91 -156 c-20 -27 -33 -32 -33 -12 0 17 20 37
37 37 11 0 9 -6 -4 -25z"/>
<path d="M7450 769 l0 -42 -21 27 c-31 39 -49 34 -49 -15 0 -32 -6 -46 -24
-60 -14 -11 -30 -36 -36 -57 -7 -20 -18 -47 -26 -59 -8 -12 -23 -44 -33 -71
l-20 -49 25 -37 c32 -47 64 -48 107 -2 18 18 46 37 62 41 17 3 38 14 48 22 15
15 17 15 17 0 0 -9 -20 -39 -45 -67 -55 -61 -75 -99 -75 -140 l0 -30 76 0 c66
0 75 -2 72 -17 -3 -15 -18 -19 -103 -23 -55 -3 -106 -9 -112 -13 -15 -9 -17
-73 -4 -82 6 -3 14 2 20 12 8 14 29 18 123 23 62 3 164 3 226 0 93 -4 116 -8
126 -22 7 -10 16 -15 19 -11 12 11 7 72 -5 80 -7 4 -58 10 -113 13 -85 4 -100
8 -103 23 -3 15 6 17 78 17 l81 0 -6 68 c-17 194 -52 292 -132 362 -25 22 -56
43 -69 46 -13 4 -25 16 -29 32 -8 31 -43 72 -62 72 -9 0 -13 -14 -13 -41z
m165 -160 c56 -68 85 -159 85 -269 0 -52 -3 -60 -19 -60 -16 0 -19 11 -23 113
-6 122 -21 173 -65 220 -15 15 -22 27 -16 27 6 0 23 -14 38 -31z m-191 12 c3
-5 -1 -12 -10 -15 -27 -10 -44 -7 -44 9 0 16 45 21 54 6z m-91 -156 c-20 -27
-33 -32 -33 -12 0 17 20 37 37 37 11 0 9 -6 -4 -25z"/>
<path d="M8450 769 l0 -42 -21 27 c-31 39 -49 34 -49 -15 0 -32 -6 -46 -24
-60 -14 -11 -30 -36 -36 -57 -7 -20 -18 -47 -26 -59 -8 -12 -23 -44 -33 -71
l-20 -49 25 -37 c32 -47 64 -48 107 -2 18 18 46 37 62 41 17 3 38 14 48 22 15
15 17 15 17 0 0 -9 -20 -39 -45 -67 -24 -28 -51 -63 -60 -80 -20 -38 -20 -90
0 -90 22 0 18 -21 -5 -27 -16 -4 -20 -14 -20 -49 l0 -44 45 0 c25 0 45 5 45
10 0 6 9 10 20 10 11 0 20 -4 20 -10 0 -6 28 -10 65 -10 37 0 65 4 65 10 0 6
9 10 20 10 11 0 20 -4 20 -10 0 -5 23 -10 50 -10 l50 0 0 40 c0 34 -4 42 -25
50 -30 11 -33 30 -5 30 19 0 20 4 15 68 -17 194 -52 292 -132 362 -25 22 -56
43 -69 46 -13 4 -25 16 -29 32 -8 31 -43 72 -62 72 -9 0 -13 -14 -13 -41z
m165 -160 c56 -68 85 -159 85 -269 0 -52 -3 -60 -19 -60 -16 0 -19 11 -23 113
-6 122 -21 173 -65 220 -15 15 -22 27 -16 27 6 0 23 -14 38 -31z m-191 12 c3
-5 -1 -12 -10 -15 -27 -10 -44 -7 -44 9 0 16 45 21 54 6z m-91 -156 c-20 -27
-33 -32 -33 -12 0 17 20 37 37 37 11 0 9 -6 -4 -25z m299 -252 c-40 -2 -103
-2 -140 0 -37 2 -4 3 73 3 77 0 107 -2 67 -3z m108 -43 c0 -6 -65 -10 -175
-10 -110 0 -175 4 -175 10 0 6 65 10 175 10 110 0 175 -4 175 -10z"/>
<path d="M490 785 c0 -8 -7 -15 -15 -15 -8 0 -15 -4 -15 -10 0 -5 7 -10 15
-10 22 0 18 -38 -5 -50 -13 -7 -20 -21 -20 -41 l0 -30 -32 17 c-33 17 -89 14
-114 -7 -8 -6 -18 -28 -24 -49 -13 -47 3 -101 47 -157 29 -37 30 -41 25 -119
-4 -78 -3 -83 19 -95 33 -19 225 -19 258 0 23 13 23 16 17 93 -6 75 -5 82 17
112 55 72 74 158 44 197 -30 39 -83 49 -129 25 -27 -15 -28 -14 -28 14 0 19
-7 33 -20 40 -23 12 -27 50 -5 50 8 0 15 5 15 10 0 6 -7 10 -15 10 -8 0 -15 7
-15 15 0 8 -4 15 -10 15 -5 0 -10 -7 -10 -15z m28 -148 c2 -25 -2 -56 -9 -69
-12 -22 -12 -22 -20 -3 -10 25 -11 109 -2 119 16 15 28 -3 31 -47z m-103 -29
c36 -28 65 -92 65 -144 l0 -42 -47 -5 c-42 -4 -51 -1 -71 22 -53 58 -67 136
-32 171 26 26 51 25 85 -2z m255 2 c25 -25 26 -70 0 -118 -38 -72 -49 -80
-105 -73 l-50 6 3 40 c5 64 21 102 58 135 40 35 66 38 94 10z m-76 -246 c36
-14 10 -19 -94 -19 -101 0 -130 5 -97 18 18 8 172 8 191 1z m9 -61 c23 -13 -5
-18 -108 -18 -135 0 -153 11 -45 28 27 5 140 -3 153 -10z"/>
<path d="M490 625 c0 -28 4 -44 10 -40 6 3 10 21 10 40 0 19 -4 37 -10 40 -6
4 -10 -12 -10 -40z"/>
<path d="M340 581 c-15 -30 -12 -50 15 -98 26 -43 48 -53 89 -37 29 11 11 97
-28 137 -23 23 -63 22 -76 -2z"/>
<path d="M592 593 c-16 -6 -47 -68 -55 -110 -7 -34 4 -43 53 -43 19 0 33 8 45
26 54 83 29 156 -43 127z"/>
<path d="M5453 788 c-31 -15 -38 -44 -19 -73 9 -14 12 -25 7 -25 -5 0 -23 -12
-40 -26 -42 -35 -50 -82 -21 -131 15 -26 18 -39 10 -41 -28 -10 -79 -65 -99
-107 -11 -24 -24 -69 -27 -100 l-7 -55 243 0 243 0 -7 52 c-11 84 -48 152
-100 190 -35 24 -43 34 -32 40 8 5 20 23 26 42 14 44 -6 97 -47 122 -15 10
-29 19 -31 20 -2 1 4 13 12 27 15 22 15 26 -1 46 -21 25 -78 35 -110 19z m-6
-60 c-3 -7 -5 -2 -5 12 0 14 2 19 5 13 2 -7 2 -19 0 -25z m-23 -93 c-12 -18
-15 -38 -11 -68 5 -38 4 -40 -9 -23 -18 26 -18 66 2 94 21 31 38 28 18 -3z
m-59 -221 c-21 -31 -30 -59 -38 -123 -4 -30 -27 -23 -27 8 0 43 24 96 56 126
36 34 38 32 9 -11z"/>
<path d="M2475 777 c-13 -10 -16 -22 -12 -42 4 -25 -2 -35 -43 -72 -26 -23
-53 -56 -60 -73 -18 -43 -8 -116 20 -146 22 -22 22 -26 10 -64 -16 -48 -3 -70
41 -70 16 0 29 -4 29 -10 0 -6 -33 -10 -79 -10 -43 0 -92 -5 -110 -11 -28 -10
-31 -15 -31 -50 0 -43 4 -46 26 -24 12 11 40 15 114 15 55 0 102 4 105 10 4 7
12 7 25 0 10 -5 61 -10 114 -10 71 0 98 -4 110 -15 22 -22 26 -19 26 24 0 35
-3 40 -31 50 -18 6 -67 11 -110 11 -46 0 -79 4 -79 10 0 6 10 10 23 10 13 0
32 6 42 14 18 13 18 16 3 54 -14 36 -14 43 -1 53 23 20 43 65 43 99 0 47 -27
95 -75 138 -37 32 -42 42 -38 66 4 21 1 33 -12 43 -11 7 -22 13 -25 13 -3 0
-14 -6 -25 -13z m35 -137 c0 -27 3 -30 30 -30 20 0 30 -5 30 -15 0 -10 -10
-15 -30 -15 l-30 0 0 -65 c0 -37 -4 -65 -10 -65 -6 0 -10 28 -10 65 l0 65 -30
0 c-20 0 -30 5 -30 15 0 10 10 15 30 15 27 0 30 3 30 30 0 17 5 30 10 30 6 0
10 -13 10 -30z m57 -255 c2 -6 -25 -10 -67 -10 -46 0 -70 4 -70 12 0 14 132
13 137 -2z m-18 -31 c17 -4 28 -10 25 -15 -7 -12 -141 -12 -149 0 -9 16 70 26
124 15z"/>
<path d="M4300 725 c0 -32 4 -45 14 -45 33 0 46 -46 46 -164 0 -122 -11 -166
-42 -166 -12 0 -18 -7 -18 -24 0 -18 -6 -25 -22 -28 -18 -2 -24 -11 -26 -36
l-3 -32 245 0 246 0 0 35 c0 28 -4 35 -20 35 -15 0 -20 7 -20 25 0 18 -5 25
-18 25 -31 0 -42 44 -42 165 0 121 11 165 42 165 15 0 18 8 18 45 l0 45 -45 0
c-25 0 -45 -4 -45 -10 0 -5 -11 -10 -25 -10 -14 0 -25 5 -25 10 0 6 -27 10
-60 10 -33 0 -60 -4 -60 -10 0 -5 -11 -10 -25 -10 -14 0 -25 5 -25 10 0 6 -20
10 -45 10 l-45 0 0 -45z m293 -22 c-51 -2 -135 -2 -185 0 -51 1 -10 3 92 3
102 0 143 -2 93 -3z m42 -43 c-4 -6 -60 -10 -135 -10 -75 0 -131 4 -135 10 -4
6 43 10 135 10 92 0 139 -4 135 -10z m5 -300 c0 -6 -53 -10 -140 -10 -87 0
-140 4 -140 10 0 6 53 10 140 10 87 0 140 -4 140 -10z m40 -50 c0 -6 -67 -10
-180 -10 -113 0 -180 4 -180 10 0 6 67 10 180 10 113 0 180 -4 180 -10z m40
-50 c0 -6 -80 -10 -220 -10 -140 0 -220 4 -220 10 0 6 80 10 220 10 140 0 220
-4 220 -10z"/>
</g>
</svg>
